<mxfile host="Electron" agent="Mozilla/5.0 (Windows NT 10.0; Win64; x64) AppleWebKit/537.36 (KHTML, like Gecko) draw.io/24.7.5 Chrome/126.0.6478.183 Electron/31.3.0 Safari/537.36" version="24.7.5">
  <diagram name="Page-1" id="ye7E3HsgE_x-62PFDEjk">
    <mxGraphModel dx="-103" dy="434" grid="1" gridSize="10" guides="1" tooltips="1" connect="1" arrows="1" fold="1" page="1" pageScale="1" pageWidth="827" pageHeight="1169" math="0" shadow="0">
      <root>
        <mxCell id="0" />
        <mxCell id="1" parent="0" />
        <mxCell id="MPSMcn46dry4OaS04GOn-1" value="" style="curved=1;endArrow=none;html=1;rounded=0;strokeWidth=8;endFill=0;strokeColor=#FFCE6B;" edge="1" parent="1">
          <mxGeometry width="50" height="50" relative="1" as="geometry">
            <mxPoint x="1347" y="320" as="sourcePoint" />
            <mxPoint x="1387" y="280" as="targetPoint" />
            <Array as="points">
              <mxPoint x="1367" y="320" />
              <mxPoint x="1367" y="280" />
            </Array>
          </mxGeometry>
        </mxCell>
        <mxCell id="MPSMcn46dry4OaS04GOn-2" value="" style="curved=1;endArrow=none;html=1;rounded=0;strokeWidth=8;endFill=0;strokeColor=#FF66B3;" edge="1" parent="1">
          <mxGeometry width="50" height="50" relative="1" as="geometry">
            <mxPoint x="1291" y="320.35" as="sourcePoint" />
            <mxPoint x="1251" y="360.35" as="targetPoint" />
            <Array as="points">
              <mxPoint x="1271" y="320.35" />
              <mxPoint x="1271" y="360.35" />
            </Array>
          </mxGeometry>
        </mxCell>
        <mxCell id="MPSMcn46dry4OaS04GOn-3" value="" style="curved=1;endArrow=none;html=1;rounded=0;strokeWidth=8;endFill=0;strokeColor=#00CCCC;" edge="1" parent="1">
          <mxGeometry width="50" height="50" relative="1" as="geometry">
            <mxPoint x="1265" y="400.35" as="sourcePoint" />
            <mxPoint x="1305" y="440.35" as="targetPoint" />
            <Array as="points">
              <mxPoint x="1285" y="400.35" />
              <mxPoint x="1285" y="440.35" />
            </Array>
          </mxGeometry>
        </mxCell>
        <mxCell id="MPSMcn46dry4OaS04GOn-4" value="" style="curved=1;endArrow=none;html=1;rounded=0;strokeWidth=8;endFill=0;strokeColor=#3399FF;" edge="1" parent="1">
          <mxGeometry width="50" height="50" relative="1" as="geometry">
            <mxPoint x="1081" y="360.35" as="sourcePoint" />
            <mxPoint x="1121" y="400.35" as="targetPoint" />
            <Array as="points">
              <mxPoint x="1101" y="360.35" />
              <mxPoint x="1101" y="400.35" />
            </Array>
          </mxGeometry>
        </mxCell>
        <mxCell id="MPSMcn46dry4OaS04GOn-5" value="" style="ellipse;whiteSpace=wrap;html=1;aspect=fixed;strokeColor=none;rounded=0;strokeWidth=8;align=center;verticalAlign=middle;fontFamily=Helvetica;fontSize=11;fontColor=default;labelBackgroundColor=default;fillColor=#666666;" vertex="1" parent="1">
          <mxGeometry x="1081" y="350.35" width="20" height="20" as="geometry" />
        </mxCell>
        <mxCell id="MPSMcn46dry4OaS04GOn-6" value="" style="endArrow=none;html=1;rounded=0;strokeColor=#666666;strokeWidth=8;align=center;verticalAlign=middle;fontFamily=Helvetica;fontSize=11;fontColor=default;labelBackgroundColor=default;endFill=0;curved=1;" edge="1" parent="1">
          <mxGeometry width="50" height="50" relative="1" as="geometry">
            <mxPoint x="991" y="359.98" as="sourcePoint" />
            <mxPoint x="1091" y="359.98" as="targetPoint" />
          </mxGeometry>
        </mxCell>
        <mxCell id="MPSMcn46dry4OaS04GOn-7" value="" style="ellipse;whiteSpace=wrap;html=1;aspect=fixed;strokeColor=none;rounded=0;strokeWidth=8;align=center;verticalAlign=middle;fontFamily=Helvetica;fontSize=11;fontColor=default;labelBackgroundColor=default;fillColor=#666666;" vertex="1" parent="1">
          <mxGeometry x="981" y="350.35" width="20" height="20" as="geometry" />
        </mxCell>
        <mxCell id="MPSMcn46dry4OaS04GOn-8" value="" style="ellipse;whiteSpace=wrap;html=1;aspect=fixed;strokeColor=none;rounded=0;strokeWidth=8;align=center;verticalAlign=middle;fontFamily=Helvetica;fontSize=11;fontColor=default;labelBackgroundColor=default;fillColor=#3399FF;" vertex="1" parent="1">
          <mxGeometry x="1211" y="390.35" width="20" height="20" as="geometry" />
        </mxCell>
        <mxCell id="MPSMcn46dry4OaS04GOn-9" value="" style="endArrow=none;html=1;rounded=0;strokeColor=#666666;strokeWidth=8;align=center;verticalAlign=middle;fontFamily=Helvetica;fontSize=11;fontColor=default;labelBackgroundColor=default;endFill=0;curved=1;" edge="1" parent="1">
          <mxGeometry width="50" height="50" relative="1" as="geometry">
            <mxPoint x="1091" y="359.91999999999996" as="sourcePoint" />
            <mxPoint x="1261" y="360.35" as="targetPoint" />
          </mxGeometry>
        </mxCell>
        <mxCell id="MPSMcn46dry4OaS04GOn-10" value="" style="endArrow=none;html=1;rounded=0;strokeColor=#3399FF;strokeWidth=8;align=center;verticalAlign=middle;fontFamily=Helvetica;fontSize=11;fontColor=default;labelBackgroundColor=default;endFill=0;curved=1;" edge="1" parent="1">
          <mxGeometry width="50" height="50" relative="1" as="geometry">
            <mxPoint x="1121" y="400.28" as="sourcePoint" />
            <mxPoint x="1221" y="400.28" as="targetPoint" />
          </mxGeometry>
        </mxCell>
        <mxCell id="MPSMcn46dry4OaS04GOn-11" value="" style="ellipse;whiteSpace=wrap;html=1;aspect=fixed;strokeColor=none;rounded=0;strokeWidth=8;align=center;verticalAlign=middle;fontFamily=Helvetica;fontSize=11;fontColor=default;labelBackgroundColor=default;fillColor=#666666;" vertex="1" parent="1">
          <mxGeometry x="1251" y="350.35" width="20" height="20" as="geometry" />
        </mxCell>
        <mxCell id="MPSMcn46dry4OaS04GOn-12" value="" style="endArrow=none;html=1;rounded=0;strokeColor=#3399FF;strokeWidth=8;align=center;verticalAlign=middle;fontFamily=Helvetica;fontSize=11;fontColor=default;labelBackgroundColor=default;endFill=0;curved=1;" edge="1" parent="1">
          <mxGeometry width="50" height="50" relative="1" as="geometry">
            <mxPoint x="1221" y="400.01" as="sourcePoint" />
            <mxPoint x="1271" y="400.35" as="targetPoint" />
          </mxGeometry>
        </mxCell>
        <mxCell id="MPSMcn46dry4OaS04GOn-13" value="" style="ellipse;whiteSpace=wrap;html=1;aspect=fixed;strokeColor=none;rounded=0;strokeWidth=8;align=center;verticalAlign=middle;fontFamily=Helvetica;fontSize=11;fontColor=default;labelBackgroundColor=default;fillColor=#3399FF;" vertex="1" parent="1">
          <mxGeometry x="1265" y="390.35" width="20" height="20" as="geometry" />
        </mxCell>
        <mxCell id="MPSMcn46dry4OaS04GOn-14" value="" style="ellipse;whiteSpace=wrap;html=1;aspect=fixed;strokeColor=none;rounded=0;strokeWidth=8;align=center;verticalAlign=middle;fontFamily=Helvetica;fontSize=11;fontColor=default;labelBackgroundColor=default;fillColor=#3399FF;" vertex="1" parent="1">
          <mxGeometry x="1366" y="390.35" width="20" height="20" as="geometry" />
        </mxCell>
        <mxCell id="MPSMcn46dry4OaS04GOn-15" value="" style="endArrow=none;html=1;rounded=0;strokeColor=#3399FF;strokeWidth=8;align=center;verticalAlign=middle;fontFamily=Helvetica;fontSize=11;fontColor=default;labelBackgroundColor=default;endFill=0;curved=1;" edge="1" parent="1">
          <mxGeometry width="50" height="50" relative="1" as="geometry">
            <mxPoint x="1281" y="400.11" as="sourcePoint" />
            <mxPoint x="1371" y="400.35" as="targetPoint" />
          </mxGeometry>
        </mxCell>
        <mxCell id="MPSMcn46dry4OaS04GOn-16" value="" style="curved=1;endArrow=none;html=1;rounded=0;strokeWidth=8;endFill=0;strokeColor=#3399FF;" edge="1" parent="1">
          <mxGeometry width="50" height="50" relative="1" as="geometry">
            <mxPoint x="1411" y="360.35" as="sourcePoint" />
            <mxPoint x="1371" y="400.35" as="targetPoint" />
            <Array as="points">
              <mxPoint x="1391" y="360.35" />
              <mxPoint x="1391" y="400.35" />
            </Array>
          </mxGeometry>
        </mxCell>
        <mxCell id="MPSMcn46dry4OaS04GOn-17" value="" style="ellipse;whiteSpace=wrap;html=1;aspect=fixed;strokeColor=none;rounded=0;strokeWidth=8;align=center;verticalAlign=middle;fontFamily=Helvetica;fontSize=11;fontColor=default;labelBackgroundColor=default;fillColor=#666666;" vertex="1" parent="1">
          <mxGeometry x="1406" y="350.35" width="20" height="20" as="geometry" />
        </mxCell>
        <mxCell id="MPSMcn46dry4OaS04GOn-18" value="" style="endArrow=none;html=1;rounded=0;strokeColor=#666666;strokeWidth=8;align=center;verticalAlign=middle;fontFamily=Helvetica;fontSize=11;fontColor=default;labelBackgroundColor=default;endFill=0;curved=1;" edge="1" parent="1">
          <mxGeometry width="50" height="50" relative="1" as="geometry">
            <mxPoint x="1265" y="360.01" as="sourcePoint" />
            <mxPoint x="1421" y="360.35" as="targetPoint" />
          </mxGeometry>
        </mxCell>
        <mxCell id="MPSMcn46dry4OaS04GOn-19" value="" style="endArrow=none;html=1;rounded=0;strokeColor=#666666;strokeWidth=8;align=center;verticalAlign=middle;fontFamily=Helvetica;fontSize=11;fontColor=default;labelBackgroundColor=default;endFill=0;curved=1;" edge="1" parent="1">
          <mxGeometry width="50" height="50" relative="1" as="geometry">
            <mxPoint x="1411" y="360.06000000000006" as="sourcePoint" />
            <mxPoint x="1491" y="360.35" as="targetPoint" />
          </mxGeometry>
        </mxCell>
        <mxCell id="MPSMcn46dry4OaS04GOn-20" value="" style="ellipse;whiteSpace=wrap;html=1;aspect=fixed;strokeColor=none;rounded=0;strokeWidth=8;align=center;verticalAlign=middle;fontFamily=Helvetica;fontSize=11;fontColor=default;labelBackgroundColor=default;fillColor=#666666;" vertex="1" parent="1">
          <mxGeometry x="1481" y="350.35" width="20" height="20" as="geometry" />
        </mxCell>
        <mxCell id="MPSMcn46dry4OaS04GOn-21" value="" style="ellipse;whiteSpace=wrap;html=1;aspect=fixed;strokeColor=none;rounded=0;strokeWidth=8;align=center;verticalAlign=middle;fontFamily=Helvetica;fontSize=11;fontColor=default;labelBackgroundColor=default;fillColor=#00CCCC;gradientColor=none;" vertex="1" parent="1">
          <mxGeometry x="1301" y="430.35" width="20" height="20" as="geometry" />
        </mxCell>
        <mxCell id="MPSMcn46dry4OaS04GOn-22" value="" style="endArrow=none;html=1;rounded=0;strokeColor=#00CCCC;strokeWidth=8;align=center;verticalAlign=middle;fontFamily=Helvetica;fontSize=11;fontColor=default;labelBackgroundColor=default;endFill=0;curved=1;" edge="1" parent="1">
          <mxGeometry width="50" height="50" relative="1" as="geometry">
            <mxPoint x="1316" y="440.06000000000006" as="sourcePoint" />
            <mxPoint x="1406" y="440.30000000000007" as="targetPoint" />
          </mxGeometry>
        </mxCell>
        <mxCell id="MPSMcn46dry4OaS04GOn-23" value="" style="ellipse;whiteSpace=wrap;html=1;aspect=fixed;strokeColor=none;rounded=0;strokeWidth=8;align=center;verticalAlign=middle;fontFamily=Helvetica;fontSize=11;fontColor=default;labelBackgroundColor=default;fillColor=#00CCCC;" vertex="1" parent="1">
          <mxGeometry x="1401" y="430.35" width="20" height="20" as="geometry" />
        </mxCell>
        <mxCell id="MPSMcn46dry4OaS04GOn-24" value="" style="ellipse;whiteSpace=wrap;html=1;aspect=fixed;strokeColor=none;rounded=0;strokeWidth=8;align=center;verticalAlign=middle;fontFamily=Helvetica;fontSize=11;fontColor=default;labelBackgroundColor=default;fillColor=#FF66B3;" vertex="1" parent="1">
          <mxGeometry x="1346" y="310.35" width="20" height="20" as="geometry" />
        </mxCell>
        <mxCell id="MPSMcn46dry4OaS04GOn-25" value="" style="endArrow=none;html=1;rounded=0;strokeColor=#FF66B3;strokeWidth=8;align=center;verticalAlign=middle;fontFamily=Helvetica;fontSize=11;fontColor=default;labelBackgroundColor=default;endFill=0;curved=1;" edge="1" parent="1">
          <mxGeometry width="50" height="50" relative="1" as="geometry">
            <mxPoint x="1291" y="320.15" as="sourcePoint" />
            <mxPoint x="1351" y="320.35" as="targetPoint" />
          </mxGeometry>
        </mxCell>
        <mxCell id="MPSMcn46dry4OaS04GOn-26" value="" style="endArrow=none;html=1;rounded=0;strokeColor=#FF66B3;strokeWidth=8;align=center;verticalAlign=middle;fontFamily=Helvetica;fontSize=11;fontColor=default;labelBackgroundColor=default;endFill=0;curved=1;" edge="1" parent="1">
          <mxGeometry width="50" height="50" relative="1" as="geometry">
            <mxPoint x="1356" y="320.2" as="sourcePoint" />
            <mxPoint x="1441" y="320" as="targetPoint" />
          </mxGeometry>
        </mxCell>
        <mxCell id="MPSMcn46dry4OaS04GOn-27" value="" style="ellipse;whiteSpace=wrap;html=1;aspect=fixed;strokeColor=none;rounded=0;strokeWidth=8;align=center;verticalAlign=middle;fontFamily=Helvetica;fontSize=11;fontColor=default;labelBackgroundColor=default;fillColor=#FF66B3;" vertex="1" parent="1">
          <mxGeometry x="1431" y="310.35" width="20" height="20" as="geometry" />
        </mxCell>
        <mxCell id="MPSMcn46dry4OaS04GOn-28" value="" style="ellipse;whiteSpace=wrap;html=1;aspect=fixed;strokeColor=none;rounded=0;strokeWidth=8;align=center;verticalAlign=middle;fontFamily=Helvetica;fontSize=11;fontColor=default;labelBackgroundColor=default;fillColor=#FFCE6B;" vertex="1" parent="1">
          <mxGeometry x="1470" y="270" width="20" height="20" as="geometry" />
        </mxCell>
        <mxCell id="MPSMcn46dry4OaS04GOn-29" value="" style="endArrow=none;html=1;rounded=0;strokeColor=#00CCCC;strokeWidth=8;align=center;verticalAlign=middle;fontFamily=Helvetica;fontSize=11;fontColor=default;labelBackgroundColor=default;endFill=0;curved=1;" edge="1" parent="1">
          <mxGeometry width="50" height="50" relative="1" as="geometry">
            <mxPoint x="1411" y="440.2300000000001" as="sourcePoint" />
            <mxPoint x="1461" y="440.38" as="targetPoint" />
          </mxGeometry>
        </mxCell>
        <mxCell id="MPSMcn46dry4OaS04GOn-30" value="" style="ellipse;whiteSpace=wrap;html=1;aspect=fixed;strokeColor=none;rounded=0;strokeWidth=8;align=center;verticalAlign=middle;fontFamily=Helvetica;fontSize=11;fontColor=default;labelBackgroundColor=default;fillColor=#00CCCC;" vertex="1" parent="1">
          <mxGeometry x="1451" y="430.35" width="20" height="20" as="geometry" />
        </mxCell>
        <mxCell id="MPSMcn46dry4OaS04GOn-31" value="" style="endArrow=none;html=1;rounded=0;strokeColor=#FFCE6B;strokeWidth=8;align=center;verticalAlign=middle;fontFamily=Helvetica;fontSize=11;fontColor=default;labelBackgroundColor=default;endFill=0;curved=1;" edge="1" parent="1">
          <mxGeometry width="50" height="50" relative="1" as="geometry">
            <mxPoint x="1387" y="280" as="sourcePoint" />
            <mxPoint x="1472" y="279.79999999999995" as="targetPoint" />
          </mxGeometry>
        </mxCell>
      </root>
    </mxGraphModel>
  </diagram>
</mxfile>
